<svg width="19" height="17" viewBox="0 0 19 17" fill="none" xmlns="http://www.w3.org/2000/svg">
<path d="M0.863646 15.5453H2.59092M2.59092 15.5453H11.2273M2.59092 15.5453V3.62732C2.59092 2.65996 2.59092 2.17592 2.77918 1.80644C2.94478 1.48143 3.20882 1.21738 3.53383 1.05179C3.90331 0.863524 4.38736 0.863524 5.35472 0.863524H8.4638C9.43116 0.863524 9.91417 0.863524 10.2837 1.05179C10.6087 1.21738 10.8736 1.48143 11.0392 1.80644C11.2273 2.17556 11.2273 2.65902 11.2273 3.62449V8.63624M11.2273 15.5453H16.4091M11.2273 15.5453V8.63624M16.4091 15.5453H18.1363M16.4091 15.5453V8.63624C16.4091 7.83143 16.409 7.42923 16.2775 7.1118C16.1022 6.68857 15.7663 6.35212 15.343 6.17681C15.0256 6.04533 14.6228 6.04533 13.8179 6.04533C13.0131 6.04533 12.6107 6.04533 12.2933 6.17681C11.8701 6.35212 11.5341 6.68857 11.3587 7.1118C11.2273 7.42923 11.2273 7.83143 11.2273 8.63624M5.18182 6.90897H8.63636M5.18182 4.31806H8.63636" stroke="#5A5A5A" stroke-width="1.6" stroke-linecap="round" stroke-linejoin="round"/>
</svg>
