<svg width="18" height="23" viewBox="0 0 18 23" fill="none" xmlns="http://www.w3.org/2000/svg">
<path d="M11.7842 19.878L11.1811 19.405L11.7842 19.878ZM6.1004 19.878L5.49725 20.351L6.1004 19.878ZM8.94231 22.2336V21.4671V22.2336ZM16.3517 9.56438C16.3517 10.8178 15.698 12.4951 14.6692 14.3139C13.6574 16.1026 12.3498 17.9146 11.1811 19.405L12.3874 20.351C13.5791 18.8312 14.9385 16.9515 16.0035 15.0686C17.0516 13.2157 17.8846 11.2412 17.8846 9.56438H16.3517ZM6.70355 19.405C5.53481 17.9146 4.22719 16.1026 3.2154 14.3139C2.18665 12.4951 1.53297 10.8178 1.53297 9.56438H0C0 11.2412 0.83302 13.2157 1.88109 15.0686C2.94613 16.9515 4.30547 18.8312 5.49725 20.351L6.70355 19.405ZM1.53297 9.56438C1.53297 5.07485 4.90221 1.53297 8.94231 1.53297V0C3.95164 0 0 4.33602 0 9.56438H1.53297ZM8.94231 1.53297C12.9824 1.53297 16.3517 5.07485 16.3517 9.56438H17.8846C17.8846 4.33602 13.933 0 8.94231 0V1.53297ZM11.1811 19.405C10.5485 20.2116 10.132 20.7386 9.75906 21.0774C9.41891 21.3863 9.19185 21.4671 8.94231 21.4671V23.0001C9.68739 23.0001 10.2655 22.6883 10.7898 22.2121C11.2813 21.7656 11.7884 21.1147 12.3874 20.351L11.1811 19.405ZM5.49725 20.351C6.09621 21.1147 6.60337 21.7656 7.09482 22.2121C7.61909 22.6883 8.19723 23.0001 8.94231 23.0001V21.4671C8.69277 21.4671 8.46571 21.3863 8.12556 21.0774C7.7526 20.7386 7.33611 20.2116 6.70355 19.405L5.49725 20.351ZM5.10989 9.96429C5.10989 12.0809 6.82572 13.7967 8.94231 13.7967V12.2637C7.67236 12.2637 6.64286 11.2342 6.64286 9.96429H5.10989ZM8.94231 13.7967C11.0589 13.7967 12.7747 12.0809 12.7747 9.96429H11.2418C11.2418 11.2342 10.2123 12.2637 8.94231 12.2637V13.7967ZM12.7747 9.96429C12.7747 7.8477 11.0589 6.13187 8.94231 6.13187V7.66484C10.2123 7.66484 11.2418 8.69434 11.2418 9.96429H12.7747ZM8.94231 6.13187C6.82572 6.13187 5.10989 7.8477 5.10989 9.96429H6.64286C6.64286 8.69434 7.67236 7.66484 8.94231 7.66484V6.13187Z" fill="#686868"/>
</svg>
